<svg width="14" height="16" viewBox="0 0 14 16" fill="none" xmlns="http://www.w3.org/2000/svg">
    <path d="M13 6.69c0 4.583-6 8.51-6 8.51s-6-3.927-6-8.51c0-1.561.632-3.06 1.757-4.165A6.057 6.057 0 017 .8c1.591 0 3.117.62 4.243 1.725A5.837 5.837 0 0113 6.691z" stroke="#708598" stroke-linecap="round" stroke-linejoin="round"/>
    <path d="M7 8.655c1.104 0 2-.88 2-1.964s-.896-1.963-2-1.963c-1.105 0-2 .879-2 1.963 0 1.085.895 1.964 2 1.964z" stroke="#708598" stroke-linecap="round" stroke-linejoin="round"/>
</svg>
